<?xml version="1.0" standalone="no"?>
<!DOCTYPE svg PUBLIC "-//W3C//DTD SVG 1.1//EN" "http://www.w3.org/Graphics/SVG/1.1/DTD/svg11.dtd" >
<svg xmlns="http://www.w3.org/2000/svg">
<metadata>
Created by FontForge 20120731 at Wed Feb 24 23:44:11 2016
 By Ads
</metadata>
<defs>
<font id="iconfont" horiz-adv-x="1024" >
  <font-face 
    font-family="iconfont"
    font-weight="500"
    font-stretch="normal"
    units-per-em="1024"
    panose-1="2 0 6 3 0 0 0 0 0 0"
    ascent="896"
    descent="-128"
    x-height="792"
    bbox="0 -212 1024 894"
    underline-thickness="50"
    underline-position="-100"
    unicode-range="U+0078-E626"
  />
<missing-glyph horiz-adv-x="374" 
d="M34 0v682h272v-682h-272zM68 34h204v614h-204v-614z" />
    <glyph glyph-name=".notdef" horiz-adv-x="374" 
d="M34 0v682h272v-682h-272zM68 34h204v614h-204v-614z" />
    <glyph glyph-name=".null" horiz-adv-x="0" 
 />
    <glyph glyph-name="nonmarkingreturn" horiz-adv-x="341" 
 />
    <glyph glyph-name="x" unicode="x" horiz-adv-x="1001" 
d="M281 543q-27 -1 -53 -1h-83q-18 0 -36.5 -6t-32.5 -18.5t-23 -32t-9 -45.5v-76h912v41q0 16 -0.5 30t-0.5 18q0 13 -5 29t-17 29.5t-31.5 22.5t-49.5 9h-133v-97h-438v97zM955 310v-52q0 -23 0.5 -52t0.5 -58t-10.5 -47.5t-26 -30t-33 -16t-31.5 -4.5q-14 -1 -29.5 -0.5
t-29.5 0.5h-32l-45 128h-439l-44 -128h-29h-34q-20 0 -45 1q-25 0 -41 9.5t-25.5 23t-13.5 29.5t-4 30v167h911zM163 247q-12 0 -21 -8.5t-9 -21.5t9 -21.5t21 -8.5q13 0 22 8.5t9 21.5t-9 21.5t-22 8.5zM316 123q-8 -26 -14 -48q-5 -19 -10.5 -37t-7.5 -25t-3 -15t1 -14.5
t9.5 -10.5t21.5 -4h37h67h81h80h64h36q23 0 34 12t2 38q-5 13 -9.5 30.5t-9.5 34.5q-5 19 -11 39h-368zM336 498v228q0 11 2.5 23t10 21.5t20.5 15.5t34 6h188q31 0 51.5 -14.5t20.5 -52.5v-227h-327z" />
    <glyph glyph-name="uniE600" unicode="&#xe600;" 
d="M512 684q-264 -228 -411 -351q-16 -14 -16 -33q0 -18 12.5 -30.5t30.5 -12.5h85v-298q0 -18 12.5 -30.5t30.5 -12.5h128q18 0 30.5 12.5t12.5 30.5v170h170v-170q0 -18 12.5 -30.5t30.5 -12.5h128q18 0 30.5 12.5t12.5 30.5v298h85q18 0 30.5 12.5t12.5 30.5
q0 10 -4.5 18.5t-12.5 14.5q-146 123 -410 351v0z" />
    <glyph glyph-name="uniE601" unicode="&#xe601;" 
d="M710 447h-17v-428h-56v428h-94v-428h-56v428h-94v-428h-56v428h-36h-77v-448q0 -30 22.5 -52t54.5 -22h409q16 0 30 6t24.5 16t16.5 23.5t6 28.5v448q0 1 -9 1t-30.5 -0.5t-37.5 -0.5zM824 581h-168v46q0 13 -13.5 24.5t-30.5 17.5t-31 6h-150q-24 0 -49.5 -14.5
t-25.5 -33.5v-46h-169q-15 0 -26.5 -11t-11.5 -26.5t11.5 -26.5t26.5 -11h637q10 0 19 5t14 14t5 19q0 4 -1 8.5t-3 8t-4.5 7t-6 6t-7 4t-8 2.5t-8.5 1zM581 581h-150v19h150v-19z" />
    <glyph glyph-name="uniE602" unicode="&#xe602;" 
d="M527.5 764q-91.5 0 -174.5 -35.5t-143 -95.5t-95.5 -143t-35.5 -174t35.5 -174t95.5 -143t143 -95.5t174.5 -35.5t174.5 35.5t143 95.5t95.5 143t35.5 174t-35.5 174t-95.5 143t-143 95.5t-174.5 35.5zM729 303l-321 -193q-3 -2 -7 -2t-7.5 2t-5.5 5.5t-2 7.5v387
q0 8 7.5 12.5t14.5 0.5l321 -193q8 -5 8 -14q0 -2 -1 -5t-3 -5t-4 -3z" />
    <glyph glyph-name="uniE603" unicode="&#xe603;" 
d="M614 658q0 -34 -17 -63.5t-46.5 -47t-64.5 -17.5q-53 0 -90.5 37.5t-37.5 90.5t37.5 90.5t90.5 37.5t90.5 -37.5t37.5 -90.5zM758 431q48 0 81 33q22 23 30 52.5t0 59t-30 51.5q-33 34 -81 34q-9 0 -17.5 -1.5t-17.5 -4t-17 -6.5t-15.5 -9.5t-13.5 -12.5q-34 -33 -34 -81
t34 -82q16 -16 37 -24.5t44 -8.5zM870.5 377q-42.5 0 -72.5 -30t-30 -72.5t30 -72.5t72 -30q28 0 51.5 13.5t37.5 37.5t14 51q0 43 -30 73t-72.5 30zM758 93q-12 0 -23 -3t-21.5 -9t-18.5 -15q-27 -26 -27 -63t27 -63q8 -9 18.5 -15t21.5 -9t23 -3q37 0 63 27q27 26 27 63
t-27 63q-12 13 -29 20t-34 7zM486.5 -33q-31.5 0 -54 -22.5t-22.5 -54t22.5 -54t54 -22.5t54 22.5t22.5 54t-22.5 54t-54 22.5zM215 67q-27 0 -45.5 -19t-18.5 -45.5t18.5 -45t45 -18.5t45.5 18.5t19 45t-19 45.5q-4 5 -9.5 8.5t-11.5 5.5t-12 3.5t-12 1.5zM102 326
q-21 0 -36 -15t-15 -36.5t15 -36.5t36 -15q11 0 20.5 4t16.5 11t11 16.5t4 19.5q0 14 -7 26t-19 19t-26 7zM215 508h5q1 1 2 1q13 2 20 10q11 11 11 27t-11 27q-6 6 -13 8.5t-14 2.5q-16 0 -27 -11q-6 -5 -9 -12.5t-3 -14.5t3 -14.5t9 -12.5q11 -11 27 -11z" />
    <glyph glyph-name="uniE604" unicode="&#xe604;" 
d="M317 471q-3 0 -5 -0.5t-4.5 -1.5t-4.5 -2.5t-3.5 -3t-3 -3.5t-2 -4t-1 -4.5t-0.5 -5.5v-365q0 -11 7 -18t17 -7t17 7t7 18v365q0 5 -2 9.5t-5 8t-7.5 5.5t-9.5 2zM634 471q-19 0 -36.5 -4.5t-33 -13t-28.5 -20.5v13q0 5 -1.5 9.5t-5 8t-8 5.5t-9.5 2q-7 0 -12.5 -3.5
t-8.5 -9t-3 -12.5v-365q0 -7 3 -12.5t8.5 -9t12.5 -3.5q10 0 17 7t7 18v134q42 -37 98 -37q60 0 103 43t43 103q0 17 -3.5 33.5t-11 31t-17.5 27.5t-22.5 23t-27 17t-31 11t-33.5 4zM634 227q-16 0 -31 5t-27 14t-21 21t-14 26.5t-5 30.5q0 27 13 49.5t35.5 35.5t49.5 13
q40 0 68.5 -28.5t28.5 -69t-28.5 -69t-68.5 -28.5zM512 812q-104 0 -199 -40.5t-163.5 -109t-109 -163.5t-40.5 -199t40.5 -199t109 -163.5t163.5 -109t199 -40.5t199 40.5t163.5 109t109 163.5t40.5 199q0 139 -68.5 257t-186.5 186.5t-257 68.5zM512 -164q-94 0 -180 36.5
t-148.5 99t-99 148.5t-36.5 180t36.5 180t99 148.5t148.5 99t180 36.5t180 -36.5t148.5 -99t99 -148.5t36.5 -180q0 -192 -136 -328t-328 -136z" />
    <glyph glyph-name="uniE605" unicode="&#xe605;" 
d="M825 569q-12 0 -20 -8t-8 -20v-144q-1 -55 -24 -105.5t-60 -87t-88.5 -58t-107.5 -21.5t-107.5 21.5t-89 58t-60 87t-22.5 106.5v143q0 8 -4 14.5t-10.5 10t-13.5 3.5q-12 0 -20 -8t-8 -20v-24v-47v-52v-21q1 -128 90 -222t217 -105v-1v-75h-127q-7 0 -13.5 -4
t-10.5 -10.5t-4 -13.5q0 -6 2.5 -11t6 -9t8.5 -6t11 -2h310q12 0 20 8t8 19.5t-8 20t-20 8.5h-127v75v1q50 5 96.5 23.5t84 48.5t66 69t44.5 86.5t16 98.5q0 1 0.5 37.5t0.5 70.5v37q0 21 -20 27q-5 1 -8 1zM517 208q80 0 136.5 56.5t56.5 135.5v241q0 79 -56.5 135
t-136.5 56t-136.5 -56t-56.5 -135v-241q0 -79 56.5 -135.5t136.5 -56.5zM380 641q0 56 40 95.5t97 39.5t97 -39.5t40 -95.5v-241q0 -37 -18.5 -68t-50 -49.5t-68.5 -18.5t-68.5 18.5t-50 49.5t-18.5 68v241z" />
    <glyph glyph-name="uniE606" unicode="&#xe606;" 
d="M895 638l-474 -468l-298 315q-6 7 -15 9.5t-18 0.5t-15 -9q-11 -10 -11 -24.5t10 -25.5l321 -340q13 -14 25 -11q14 0 24 10l499 493q10 10 10.5 24.5t-9.5 25t-24 10.5t-25 -10z" />
    <glyph glyph-name="uniE607" unicode="&#xe607;" 
d="M219 164q3 2 8.5 6.5t23 18.5t36 26.5t47 29.5t56.5 30t63 24.5t69 17.5t72 4.5t73 -10.5v-163l292 299l-289 216v-171q-81 7 -176 -21q-204 -61 -264 -264q-6 -21 -11 -43zM699 -8h-571v446h140q14 14 29.5 26.5t29.5 21t29 15.5h-292v-573h698v220l-63 -63v-93z" />
    <glyph glyph-name="uniE608" unicode="&#xe608;" 
d="M512 300zM60 300q0 92 36 175.5t96.5 144t144 96.5t175.5 36t175.5 -36t144 -96.5t96.5 -144t36 -175.5q0 -74 -23 -143t-64.5 -124.5t-97 -97t-124.5 -64.5t-143 -23q-171 0 -299 114q-124 109 -148 271q-5 34 -5 67z" />
    <glyph glyph-name="uniE609" unicode="&#xe609;" 
d="M510 747q-91 0 -173.5 -35t-142.5 -95t-95 -142.5t-35 -173t35 -173.5t95 -142.5t142.5 -95t173 -35.5t173.5 35.5t142.5 95t95 142.5t35.5 173q0 52 -12 102.5t-34 94t-52.5 82.5t-69 69.5t-82.5 52.5t-94 33.5t-102 11.5zM564 28h-108v108h108v-108zM564 244h-108v323
h108v-323z" />
    <glyph glyph-name="uniE60A" unicode="&#xe60a;" 
d="M677 65q-76 -53 -168 -52q-6 0 -11 0.5t-13 0.5q-2 0 -9 1q-6 1 -10.5 1.5t-8.5 1.5q-1 0 -11 3q-11 2 -17 4q-1 0 -3.5 1t-4.5 2q-10 3 -19 7q-3 1 -5 2q-12 5 -22 10l-1 1q-37 20 -65 49l-1 1q-10 10 -17 19q-3 3 -3 4q-30 38 -46.5 83.5t-16.5 95.5h75l-121 182
l-121 -182h76q0 -117 67 -214l1 -1v-2q3 -4 14 -18l3 -3l2 -3q8 -10 22 -24l2 -2q38 -38 85 -64l3 -1q12 -7 27 -14q1 0 3.5 -1t3.5 -2q6 -2 11.5 -4t13.5 -5q5 -2 11 -4q6 -1 11.5 -2.5t10.5 -2.5q2 -1 5 -1.5t5.5 -1t4.5 -1.5q5 -1 6 -1q2 -1 4.5 -1t4.5 -0.5t4 -0.5
t4.5 -0.5t3.5 -0.5q6 -1 8 -1q21 -2 38 -2q118 0 216 69q15 10 18.5 28.5t-7.5 34.5q-11 15 -29.5 18.5t-33.5 -7.5zM890 300q0 117 -67 214v2l-1 1q-7 10 -17 21q-1 1 -2 3q-28 35 -64 61.5t-77 44.5q-1 0 -2.5 0.5t-1.5 1.5q-6 2 -12.5 4.5t-14.5 5t-10 3.5q-5 1 -11 3
t-12 3q-2 0 -6.5 1.5t-7.5 1.5q-1 0 -3 0.5t-3 1.5q-4 0 -18 2q-2 0 -6 0.5t-7 0.5q-4 1 -9.5 1t-10 0.5t-10.5 0.5h-2h-3h-1q-58 0 -113 -17.5t-103 -50.5q-10 -7 -15 -18t-4 -23t8 -22q11 -16 29.5 -19t33.5 8q76 52 167 51q14 0 25 -1q3 0 8 -1q4 -1 7 -1t6.5 -0.5
t6.5 -1.5t7 -2h2q12 -3 19 -5l6 -2q6 -2 11.5 -4t10.5 -4l1 -1h1q32 -14 59.5 -34.5t49.5 -46.5v-1q65 -79 65 -182h-75l121 -181l121 181h-76zM890 300z" />
    <glyph glyph-name="uniE60B" unicode="&#xe60b;" 
d="M420 -44l-360 348l90 93l264 -254l454 501l96 -87z" />
    <glyph glyph-name="uniE60C" unicode="&#xe60c;" 
d="M929 -23l-192 192q35 45 54.5 100t19.5 114q0 95 -47 175.5t-127.5 127.5t-175.5 47t-175.5 -47t-127.5 -127.5t-47 -175.5t47 -175.5t127.5 -127.5t175.5 -47q120 0 215 74l191 -192q13 -13 31 -13q6 0 11.5 1.5t10.5 4.5t9 7q13 13 13 31t-13 31zM199 383.5
q0 108.5 77 185t185 76.5q71 0 131.5 -35t95.5 -95.5t35 -131.5q0 -108 -76.5 -185t-185 -77t-185.5 77t-77 185.5z" />
    <glyph glyph-name="uniE60D" unicode="&#xe60d;" 
d="M776 386q2 -1 6 -3.5t13.5 -14t17 -27t12.5 -45t4 -66.5l41 -41q5 11 12 30.5t15 69t1 87.5q0 4 -1 10t-9 26t-21.5 40.5t-43.5 51.5t-71 61q0 1 -7 0t-17.5 2.5t-20.5 8.5t-16.5 20t-4.5 36l-57 57l-104 -104l50 -50q2 -1 4.5 -1t11 -1.5t16 -3.5t17 -6t17 -9t14 -13.5
t9.5 -18.5t1 -24.5t-9 -30.5l-187 -189l-36 6l-214 -214q0 -2 -1 -6t-1.5 -14.5t1 -20.5t7.5 -22t17 -21l8 -8q5 -5 24.5 -13t41.5 -7l210 218l4 36l214 212q13 16 32 2zM371 362l68 -68l91 92l-70 70q15 35 15.5 66.5t-10.5 55t-29 43t-37.5 32.5t-37.5 22.5t-29 13.5
t-12 4q-17 4 -25 -1t-7 -12v-7q38 -31 55.5 -54t16.5 -30l-1 -8q-3 -22 -12.5 -41.5t-20.5 -31.5t-22 -21t-18 -13l-7 -3q-21 -8 -39.5 -4.5t-34.5 15.5t-27.5 24.5t-18.5 22.5l-6 10q-10 1 -15 -4t-5 -12v-6q11 -50 30.5 -85.5t41 -52.5t45.5 -25.5t45 -8t38.5 4t27 7.5
t10.5 5zM585 140l211 -225l104 104l-222 214zM796 68l43 -31l-16 -51h-54l-16 51z" />
    <glyph glyph-name="uniE60E" unicode="&#xe60e;" 
d="M512 300zM122 300q0 106 52.5 195.5t142 142t195.5 52.5t195.5 -52.5t142 -142t52.5 -195.5t-52.5 -195.5t-142 -142t-195.5 -52.5t-195.5 52.5t-142 142t-52.5 195.5z" />
    <glyph glyph-name="uniE60F" unicode="&#xe60f;" 
d="M443 -1q-75 0 -143.5 28t-121.5 82q-72 72 -97.5 168.5t0 193t97.5 168.5q26 26 57 47t64.5 34.5t70 21t73.5 7.5q75 0 143.5 -28.5t121.5 -81.5q36 -35 60.5 -77.5t37 -90t12.5 -97.5q0 -75 -28 -143.5t-81.5 -122t-122 -81.5t-143.5 -28zM443 691q-131 0 -224 -93
t-93 -224.5t93 -224.5q45 -45 103 -69t121.5 -24t121.5 24t103 69q93 93 93 224.5t-93 224.5q-23 23 -49 40.5t-54.5 29t-59 17.5t-62.5 6zM708 149l246 -245l-41 -41l-245 246z" />
    <glyph glyph-name="uniE610" unicode="&#xe610;" 
d="M839 398q0 -1 -1 -1q1 -3 0 -6t-4 -6v0q0 -1 -1 -1q-1 -2 -2 -3l-2 -2q-5 -4 -7 -5l-588 -243v-195q0 -34 -23 -34q-7 0 -12 2.5t-8 7.5t-4.5 11t-1.5 13v728q0 34 26 34q11 0 16 -6.5t6 -17.5l589 -243q18 -11 17 -32v-1zM234 191l524 213l-524 213v-426z" />
    <glyph glyph-name="uniE611" unicode="&#xe611;" 
d="M195 657h210v57h-267v-268h57v211zM635 714v-57h210v-211h58v268h-268zM195 217h-57v-268h267v58h-210v210zM845 7h-210v-58h268v268h-58v-210zM252 313h536v38h-536v-38z" />
    <glyph glyph-name="uniE612" unicode="&#xe612;" 
d="M380 -31l-87 82l264 248l-266 250l88 82l353 -331h-1l1 -1l-88 -83z" />
    <glyph glyph-name="uniE613" unicode="&#xe613;" 
d="M606 141v514q0 39 -27.5 66t-66.5 27t-66.5 -27t-27.5 -66v-513q-31 -23 -48.5 -57t-17.5 -73q0 -66 47 -113t113.5 -47t113 46.5t46.5 113.5q0 26 -8 50.5t-23 44t-35 34.5zM482 655q0 12 9 20.5t21 8.5q6 0 11.5 -2t9.5 -6t6.5 -9.5t2.5 -11.5v-99h-60v99zM544 236h-32
v32h32v-32zM544 300h-32v128h32v-128z" />
    <glyph glyph-name="uniE614" unicode="&#xe614;" 
d="M511 747q-73 0 -141 -22.5t-123 -64t-96.5 -96.5t-64 -123t-22.5 -141q0 -91 35 -173.5t95 -142.5t143 -95.5t174 -35.5t173.5 35.5t142.5 95.5t95.5 142.5t35.5 173.5t-35.5 174t-95.5 142.5t-142.5 95t-173.5 35.5zM510.5 -51q-95.5 0 -176.5 47t-128 128t-47 176.5
t47 176.5t128 128t176.5 47t176.5 -47t128 -128t47 -176.5t-47 -176.5t-128 -128t-176.5 -47zM511 300zM296 300q0 89 63 152t151.5 63t151.5 -63t63 -152h-429z" />
    <glyph glyph-name="uniE615" unicode="&#xe615;" 
d="M512 746q-73 0 -141 -22.5t-123 -64t-96.5 -96t-64 -123t-22.5 -141.5q0 -91 35.5 -173.5t95 -142.5t142.5 -95.5t174 -35.5t174 35.5t142.5 95.5t95 142.5t35.5 173.5t-35.5 174t-95 143t-142.5 95t-174 35zM748 416l-286 -286q-7 -7 -16.5 -7t-16.5 7l-168 168
q-7 7 -7 16.5t7 16.5q4 5 10 6.5t12.5 0t10.5 -6.5l152 -151l269 269q4 5 10 6.5t12.5 0t11 -6t6 -11t0 -12.5t-6.5 -10z" />
    <glyph glyph-name="uniE616" unicode="&#xe616;" 
d="M120 75h112v-139q0 -5 1 -9t3 -7t5.5 -6t7.5 -4q5 -2 11 -2q3 0 6.5 0.5t7 2.5t5.5 5l162 159h463q23 0 39.5 16.5t16.5 39.5v505q0 16 -7.5 28.5t-20.5 20t-28 7.5h-784q-23 0 -39.5 -16t-16.5 -40v-505q0 -23 16.5 -39.5t39.5 -16.5zM120 636h784v-505h-486l-130 -128
v128h-168v505zM260 355h504q12 0 20 8.5t8 20t-8 19.5t-20 8h-504q-12 0 -20 -8t-8 -19.5t8 -20t20 -8.5zM260 467h504q12 0 20 8.5t8 20t-8 19.5t-20 8h-504q-12 0 -20 -8t-8 -19.5t8 -20t20 -8.5zM624 271q0 12 -8 20t-20 8h-336q-12 0 -20 -8t-8 -19.5t8 -20t20 -8.5h336
q21 0 27 20q1 5 1 8z" />
    <glyph glyph-name="uniE617" unicode="&#xe617;" 
d="M98 642h800v-64h-800v64zM98 332h800v-64h-800v64zM98 20h800v-64h-800v64z" />
    <glyph glyph-name="uniE618" unicode="&#xe618;" 
d="M969 258l-197 1q-4 -1 -8 -0.5t-7 2t-5.5 5t-3.5 7.5l-30 94l-93 -436q-1 -23 -14 -23h-33q-8 -2 -15 2t-9 11l-115 569l-87 -411q-2 -8 -10 -13t-16 -3h-30q-9 -3 -16 1.5t-9 12.5l-59 181h-157q-8 0 -14 6t-6 14v40q0 5 3 10t7.5 7.5t9.5 2.5h196q10 1 16.5 -1.5
t8.5 -9.5l30 -95l85 446q4 14 18 14h42q8 2 15 -2t9 -11l114 -564l84 405q2 5 5 9t7.5 6t8.5 1h34q6 2 11 0.5t8.5 -5.5t5.5 -9l58 -184h158q5 0 9.5 -2.5t7.5 -7.5t3 -10v-40q0 -8 -6 -14t-14 -6z" />
    <glyph glyph-name="uniE619" unicode="&#xe619;" 
d="M751 482q0 -12 -8.5 -20.5t-20.5 -8.5h-403q-8 0 -14.5 4t-10.5 10.5t-4 14.5v4q0 7 4 14t10.5 11t14.5 4h403q12 0 20.5 -8.5t8.5 -20.5v-4zM751 338q0 -8 -4 -14.5t-10.5 -10.5t-14.5 -4h-403q-8 0 -14.5 4t-10.5 10.5t-4 14.5v4q0 12 8.5 20.5t20.5 8.5h403
q6 0 11.5 -2.5t9.5 -6.5t6 -9t2 -11v-4zM751 182q0 -12 -8.5 -20.5t-20.5 -8.5h-403q-12 0 -20.5 8.5t-8.5 20.5v4q0 12 8.5 20.5t20.5 8.5h403q8 0 14.5 -4t10.5 -10.5t4 -14.5v-4zM637 707q0 -12 -8.5 -20.5t-20.5 -8.5h-175q-12 0 -20.5 8.5t-8.5 20.5v1q0 8 4 14.5
t11 10.5t14 4h175q12 0 20.5 -8.5t8.5 -20.5v-1zM331 709v1v-2v1zM174 709q0 -4 1.5 -7.5t3 -6.5t4.5 -5.5t6 -4.5t7 -3t8 -1h98q12 0 20.5 8t8.5 19v2q0 5 -2.5 10.5t-6.5 9t-9 5.5t-11 2h-98q-6 0 -11.5 -2t-9.5 -6t-6.5 -9t-2.5 -11zM823 737h-98h98zM861 737h-38
q12 0 20.5 -8t8.5 -19v-2q0 -7 -3.5 -13t-9.5 -10t-13 -4h35q8 0 8 -8v-743q0 -8 -8 -8h-681q-2 0 -3.5 1t-3 3t-1.5 4v743q0 8 8 8h24q-12 0 -21 8t-9 20q0 5 1.5 9t4.5 7.5t6.5 6t8 4t9.5 1.5h-24q-26 0 -45 -18.5t-19 -45.5v-743q0 -26 19 -45t45 -19h681q18 0 32.5 8.5
t23 23.5t8.5 32v743q0 13 -5 25t-13.5 20.5t-20.5 13.5t-25 5zM696 713v-4v-4v8zM725 681h98h3h-104h2h1zM725 681h98q12 0 20.5 8t8.5 19v2q0 5 -2.5 10t-6 9t-9 6t-11.5 2h-98q-5 0 -9 -1t-7 -3.5t-6 -5.5t-4.5 -6.5t-2.5 -7.5v-8q1 -4 2.5 -7.5t4.5 -6.5t6 -5.5t7.5 -3.5
t8.5 -1zM852 708q0 -11 -8.5 -19t-20.5 -8h-98q-11 0 -19 7t-10 17q1 -6 4.5 -11.5t9.5 -9t12 -3.5h104q11 1 18.5 8.5t7.5 18.5z" />
    <glyph glyph-name="uniE61A" unicode="&#xe61a;" 
d="M844 385q-8 -15 -27 -17l-573 -237v-195q0 -9 -4.5 -17t-12.5 -12.5t-17.5 -4.5t-17 4.5t-12 12.5t-4.5 17v728q0 14 10 24t24 10q24 0 32 -24l575 -237q6 0 11 -2t9.5 -5.5t6.5 -8.5q5 -8 4 -18q1 -5 0 -9.5t-4 -8.5z" />
    <glyph glyph-name="uniE61C" unicode="&#xe61c;" 
d="M124 781zM686 257zM925 369h-41q-14 0 -27.5 9.5t-17.5 23.5l-24 57q-6 13 -3.5 29t12.5 26l29 29q10 10 10 24.5t-10 24.5l-49 49q-5 5 -11.5 7.5t-13 2.5t-13 -2.5t-11.5 -7.5l-29 -30q-10 -10 -26 -12t-29 4l-57 24q-14 4 -23.5 17t-9.5 28v41q0 9 -4.5 17t-12.5 12.5
t-17 4.5h-69q-14 0 -24.5 -10t-10.5 -24v-41q0 -6 -1.5 -11.5t-4.5 -11t-7 -10t-9 -7.5t-11 -5l-57 -24q-13 -6 -29 -4t-26 12l-29 30q-4 3 -8 5.5t-8 3.5t-8.5 1t-9 -1t-8.5 -3.5t-7 -5.5l-49 -49q-10 -10 -10 -24.5t10 -24.5l30 -29q6 -7 9.5 -16.5t3 -19.5t-4.5 -19
l-24 -57q-4 -14 -17 -23.5t-28 -9.5h-41q-9 0 -17 -4.5t-12.5 -12.5t-4.5 -18v-68q0 -7 2.5 -13.5t7 -11t11 -7.5t13.5 -3h41q10 0 19 -4.5t16 -12t10 -16.5l24 -57q4 -9 4.5 -19t-3 -20t-9.5 -16l-30 -29q-10 -11 -10 -25t10 -24l49 -49q10 -10 24.5 -10t24.5 10l29 29
q10 11 26 13t29 -5l57 -23q14 -4 23.5 -17.5t9.5 -27.5v-41q0 -9 5 -17t12.5 -12.5t17.5 -4.5h69q14 0 24 10t10 24v41q0 14 9.5 27.5t23.5 17.5l57 23q13 7 29 5t26 -13l29 -29q7 -6 16 -8.5t18 0t15 8.5l49 49q10 10 10 24.5t-10 24.5l-29 29q-11 10 -13 26t4 29l24 57
q4 14 17.5 23.5t27.5 9.5h41q14 0 24 10t10 24v69q1 15 -9.5 25t-24.5 10zM684 300q0 -23 -6 -45.5t-17 -41.5t-27 -35t-35 -27t-41 -17t-46 -6q-71 0 -121.5 50.5t-50.5 121.5t50.5 121.5t122 50.5t121.5 -50.5t50 -121.5z" />
    <glyph glyph-name="uniE61D" unicode="&#xe61d;" 
d="M959 -62l-85 -85l-362 362l-362 -362l-85 85l362 362l-362 362l85 85l362 -362l362 362l85 -85l-362 -362z" />
    <glyph glyph-name="uniE61E" unicode="&#xe61e;" 
d="M826 894l-322 -148l-315 -433h383l-259 -439l513 556h-377z" />
    <glyph glyph-name="uniE61F" unicode="&#xe61f;" 
d="M644 690q-293 -294 -303 -305q-2 -1 -5 -4q-13 -15 -19.5 -23t-12.5 -23t-6 -32q0 -8 2 -17t6 -16.5t8.5 -14.5t9 -12.5t8 -9.5t5.5 -6l3 -3l314 -313q2 -1 4.5 -2t10 -2.5t14.5 -1t15.5 3.5t14.5 10q11 11 13 26.5t-2 24.5l-4 10l-319 321l315 319q1 1 1.5 2.5t1.5 5.5
t1.5 8.5t0.5 10.5t-1.5 11.5t-5 12t-8.5 11.5q-10 10 -25.5 12t-25.5 -1z" />
    <glyph glyph-name="uniE620" unicode="&#xe620;" 
d="M512 -65q-91 0 -174 35.5t-143 95.5t-95 143t-35 174q0 72 22.5 140.5t64 123.5t96.5 96.5t123 64t141 22.5q91 0 173.5 -35.5t142.5 -95.5t95.5 -143t35.5 -173q0 -170 -113 -297q-109 -123 -270 -146q-32 -5 -64 -5zM512 766q-104 0 -192.5 -51.5t-140 -139.5
t-51.5 -192t51.5 -192.5t140 -140t192.5 -51.5t192.5 51.5t139.5 140t51 192.5q0 52 -13.5 101.5t-38.5 91.5t-60.5 77.5t-77.5 60t-91.5 38.5t-101.5 14zM512 766z" />
    <glyph glyph-name="uniE621" unicode="&#xe621;" 
d="M156 157q-38 0 -62 29.5t-15 67.5q3 15 11.5 27t20.5 20.5t27 11.5q23 5 44.5 -2.5t35.5 -24.5q23 -30 15 -68q-5 -22 -21 -38t-38 -21q-9 -2 -18 -2zM156 285q-2 0 -4 -0.5t-3.5 -0.5t-3.5 -1q-14 -3 -23.5 -12.5t-12.5 -23.5q-2 -7 -1.5 -14.5t3 -14t7.5 -12.5
q4 -4 8 -7.5t9 -6t10 -3.5t11 -1h6q2 0 5 1q13 3 23 13t13 23q2 7 1.5 14.5t-3 14.5t-7.5 12q-15 19 -38 19zM375 376q-37 0 -61 30q-12 14 -16 31.5t0 35.5q5 22 21 38t39 21q15 3 29.5 1t27.5 -9.5t22 -18.5q24 -30 16 -68q-3 -11 -8.5 -20.5t-13 -17.5t-17.5 -13.5
t-21 -7.5q-4 -1 -8.5 -1.5t-9.5 -0.5zM375 504q-5 0 -11 -2q-13 -3 -23 -12.5t-13 -23.5q-1 -7 -0.5 -14.5t3 -14t7.5 -12.5q14 -18 37 -18q6 0 12 1q13 3 23 13t13 23q5 23 -9.5 41.5t-38.5 18.5zM868 453q-38 0 -61.5 29.5t-15.5 67.5q5 22 21 38t38 21q23 5 44.5 -2.5
t35.5 -25.5q24 -29 15 -67q-5 -22 -21 -38t-38 -21q-9 -2 -18 -2zM868 580h-6q-2 0 -5 -1q-13 -3 -23 -13t-13 -23q-5 -23 9.5 -41.5t37.5 -18.5q6 0 11 2q14 3 23.5 12.5t12.5 23.5q5 23 -9.5 41t-37.5 18zM642 162q-21 0 -39.5 10.5t-29.5 29.5q-23 40 3 84q8 14 21 22
q3 1 6.5 2.5t6.5 3t6 2.5t6.5 2t6.5 1.5t7 0.5h6q9 0 17 -1.5t15.5 -5t14 -8.5t12.5 -11t10 -14q23 -40 -2 -84q-8 -13 -22 -21q-22 -13 -45 -13zM642 290q-4 0 -8 -1l-6 -2q-4 -1 -8 -2.5t-7 -3.5q-7 -4 -11 -11q-16 -28 -2 -53q14 -24 42 -24q4 0 7.5 0.5t7.5 1.5t7.5 2.5
t7.5 3.5q6 4 10 11q17 28 2 53q-14 25 -42 25zM706 325l-23 20l107 123l23 -20zM547 278l-107 91l19 24l108 -92zM230 293l-20 23l92 77l19 -24z" />
    <glyph glyph-name="uniE622" unicode="&#xe622;" 
d="M512 832q-61 0 -119 -16t-107 -45t-90.5 -70.5t-70.5 -90.5t-45 -107t-16 -119q0 -91 35.5 -174t95.5 -143t143 -95.5t174 -35.5t174 35.5t143 95.5t95.5 143t35.5 174t-35.5 174t-95.5 143t-143 95.5t-174 35.5zM512 -32q-113 0 -208.5 56t-151.5 151.5t-56 208.5
t56 208.5t151.5 151.5t208.5 56q85 0 162 -33t132.5 -88.5t88.5 -132.5t33 -162q0 -161 -109 -280q-106 -116 -261 -133q-24 -3 -46 -3zM512 736q-72 0 -137 -28t-112 -75t-75 -112t-28 -137q0 -96 47 -177t128 -128t177 -47t177 47t128 128t47 177t-47 177t-128 128
t-177 47zM512 64q-87 0 -160.5 43t-116.5 116.5t-43 160.5q0 43 11.5 84.5t32 77t50 65t65 50t77 32t84.5 11.5q87 0 160.5 -43t116.5 -116.5t43 -160.5t-43 -160.5t-116.5 -116.5t-160.5 -43z" />
    <glyph glyph-name="uniE623" unicode="&#xe623;" 
d="M512 842q-75 0 -145 -23t-126 -65.5t-98.5 -99t-66 -126.5t-23.5 -144q0 -93 36.5 -178t98 -146.5t146.5 -98t178 -36.5q74 0 144 23.5t126.5 66t99 98.5t65.5 126t23 145q0 93 -36 178t-97.5 146.5t-146.5 97.5t-178 36zM699 243q6 -7 8.5 -15t0 -16.5t-8.5 -15.5
q-5 -4 -11 -6.5t-12.5 -2.5t-12.5 2.5t-10 6.5l-141 142l-142 -140q-4 -5 -10 -7.5t-13 -2.5h-4l-4 2q-2 0 -4 1l-4 2q-2 1 -3.5 2.5t-3.5 2.5q-9 10 -9 23.5t9 23.5l142 139l-141 141q-10 10 -10 23.5t10 23t23.5 9.5t22.5 -10l141 -141l141 140q7 6 15.5 8.5t16.5 0
t14.5 -9t8.5 -15t0 -16.5t-9 -15l-141 -139z" />
    <glyph glyph-name="uniE626" unicode="&#xe626;" 
d="M974 404l-47 -46l-129 128l47 46q11 11 25.5 12.5t23.5 -7.5l85 -83q8 -10 7 -24.5t-12 -25.5v0zM775 465l130 -127l-309 -305q-5 -5 -11 -6q-1 0 -2 -1l-162 -51q-8 -2 -12 2q-5 5 -2 13l51 158q0 1 1 2q2 10 7 13l59 54h-196q-3 0 -6 1.5t-5 4t-3.5 5.5t-1.5 5
q0 7 5 12.5t11 5.5h227zM556 43l-80 79l-21 -67l33 -34zM771 415q-3 3 -8 3t-8 -3l-243 -238q-4 -3 -4 -8t4 -8q3 -3 8 -3t8 3l242 237q9 7 1 17v0zM231 -49q-15 1 -16 11v647q0 5 0.5 7.5t3.5 3.5t4 1.5t7 0.5h6h56v-22q0 -4 2.5 -7.5t7 -5.5t8.5 -2q3 0 5.5 0.5t5 2t4 3.5
t3 4.5t1.5 4.5v22h84v-22q0 -6 5.5 -10.5t12.5 -4.5t13 4.5t6 10.5v22h76v-22q0 -6 6 -10.5t13 -4.5q6 0 12 4.5t6 10.5v22h77v-22q0 -6 5.5 -10.5t12.5 -4.5q3 0 5.5 0.5t5 2t4.5 3.5t3 4.5t1 4.5v22h64q14 0 14 -13v-106l47 46v60q0 9 -2 16.5t-6 14t-9.5 11.5t-12 9
t-14.5 6t-17 2h-65v40q0 4 -3 7.5t-7 5.5t-9 2q-6 0 -12 -5t-6 -10v-40h-77v40q0 6 -5.5 10.5t-12.5 4.5t-13 -5t-6 -10v-40h-76v40q0 4 -3 7.5t-7 5.5t-9 2q-14 -4 -18 -15v-40h-84v40q0 6 -6 10.5t-13 4.5q-6 0 -12 -5t-6 -10v-40h-55q-23 0 -38.5 -8t-23 -21t-7.5 -30
v-646q0 -12 5.5 -23t14.5 -18.5t21 -12t24 -4.5h508q26 0 43.5 16.5t17.5 41.5v223l-47 -46v-178q0 -11 -14 -11h-509zM634 493h-306q-4 0 -7.5 -3t-5.5 -7t-2 -8q0 -6 4.5 -11.5t10.5 -5.5h306q6 0 10 5.5t4 11.5t-4 12t-10 6v0zM634 375h-306q-4 0 -7.5 -3t-5.5 -7t-2 -8
q0 -6 4.5 -11.5t10.5 -5.5h306q6 0 10 5.5t4 11.5t-4 12t-10 6v0zM634 375z" />
  </font>
</defs>
</svg>
